<mxfile host="65bd71144e">
    <diagram id="sv1qOESmhmbnTj4O34eV" name="Page-1">
        <mxGraphModel dx="2909" dy="565" grid="1" gridSize="10" guides="1" tooltips="1" connect="1" arrows="1" fold="1" page="1" pageScale="1" pageWidth="827" pageHeight="1169" math="0" shadow="0">
            <root>
                <mxCell id="0"/>
                <mxCell id="1" parent="0"/>
                <mxCell id="dHd20_O_HY_oOaejgzS0-30" value="" style="edgeStyle=orthogonalEdgeStyle;rounded=0;orthogonalLoop=1;jettySize=auto;html=1;fontSize=10;" parent="1" source="dHd20_O_HY_oOaejgzS0-1" target="dHd20_O_HY_oOaejgzS0-29" edge="1">
                    <mxGeometry relative="1" as="geometry"/>
                </mxCell>
                <mxCell id="dHd20_O_HY_oOaejgzS0-31" value="입찰거래" style="edgeLabel;html=1;align=center;verticalAlign=middle;resizable=0;points=[];fontSize=10;" parent="dHd20_O_HY_oOaejgzS0-30" vertex="1" connectable="0">
                    <mxGeometry x="-0.2372" y="-1" relative="1" as="geometry">
                        <mxPoint as="offset"/>
                    </mxGeometry>
                </mxCell>
                <mxCell id="dHd20_O_HY_oOaejgzS0-160" value="" style="edgeStyle=orthogonalEdgeStyle;rounded=0;orthogonalLoop=1;jettySize=auto;html=1;fontSize=10;" parent="1" source="dHd20_O_HY_oOaejgzS0-1" target="dHd20_O_HY_oOaejgzS0-159" edge="1">
                    <mxGeometry relative="1" as="geometry"/>
                </mxCell>
                <mxCell id="dHd20_O_HY_oOaejgzS0-162" value="이전거래" style="edgeLabel;html=1;align=center;verticalAlign=middle;resizable=0;points=[];fontSize=10;" parent="dHd20_O_HY_oOaejgzS0-160" vertex="1" connectable="0">
                    <mxGeometry x="-0.2625" y="-1" relative="1" as="geometry">
                        <mxPoint as="offset"/>
                    </mxGeometry>
                </mxCell>
                <mxCell id="dHd20_O_HY_oOaejgzS0-1" value="&lt;font style=&quot;font-size: 9px&quot;&gt;배출자가 입찰거래를&lt;br&gt;진행하고 있는가?&lt;br style=&quot;font-size: 9px&quot;&gt;ORDER.COLLECTOR_ID&lt;br&gt;IS NULL&lt;br&gt;&lt;/font&gt;" style="rhombus;whiteSpace=wrap;html=1;" parent="1" vertex="1">
                    <mxGeometry x="-482" y="190" width="228" height="110" as="geometry"/>
                </mxCell>
                <mxCell id="dHd20_O_HY_oOaejgzS0-6" value="" style="edgeStyle=orthogonalEdgeStyle;rounded=0;orthogonalLoop=1;jettySize=auto;html=1;" parent="1" source="dHd20_O_HY_oOaejgzS0-2" target="dHd20_O_HY_oOaejgzS0-5" edge="1">
                    <mxGeometry relative="1" as="geometry"/>
                </mxCell>
                <mxCell id="dHd20_O_HY_oOaejgzS0-7" value="TRUE" style="edgeLabel;html=1;align=center;verticalAlign=middle;resizable=0;points=[];" parent="dHd20_O_HY_oOaejgzS0-6" vertex="1" connectable="0">
                    <mxGeometry x="-0.2338" relative="1" as="geometry">
                        <mxPoint as="offset"/>
                    </mxGeometry>
                </mxCell>
                <mxCell id="dHd20_O_HY_oOaejgzS0-9" value="" style="edgeStyle=orthogonalEdgeStyle;rounded=0;orthogonalLoop=1;jettySize=auto;html=1;" parent="1" source="dHd20_O_HY_oOaejgzS0-2" target="dHd20_O_HY_oOaejgzS0-8" edge="1">
                    <mxGeometry relative="1" as="geometry"/>
                </mxCell>
                <mxCell id="dHd20_O_HY_oOaejgzS0-10" value="FALSE" style="edgeLabel;html=1;align=center;verticalAlign=middle;resizable=0;points=[];" parent="dHd20_O_HY_oOaejgzS0-9" vertex="1" connectable="0">
                    <mxGeometry x="-0.2833" relative="1" as="geometry">
                        <mxPoint as="offset"/>
                    </mxGeometry>
                </mxCell>
                <mxCell id="dHd20_O_HY_oOaejgzS0-2" value="&lt;font style=&quot;font-size: 9px&quot;&gt;계약종료일이 지났는가?&lt;br style=&quot;font-size: 9px&quot;&gt;ORDER.CLOSE_AT&lt;br&gt;&amp;lt;= NOW()&lt;br&gt;&lt;/font&gt;" style="rhombus;whiteSpace=wrap;html=1;" parent="1" vertex="1">
                    <mxGeometry x="130" y="190" width="228" height="110" as="geometry"/>
                </mxCell>
                <mxCell id="dHd20_O_HY_oOaejgzS0-5" value="&lt;span style=&quot;font-size: 10px&quot;&gt;105&lt;/span&gt;&lt;br style=&quot;font-size: 10px&quot;&gt;&lt;span style=&quot;font-size: 10px&quot;&gt;거래종료&lt;/span&gt;" style="whiteSpace=wrap;html=1;" parent="1" vertex="1">
                    <mxGeometry x="184" y="60" width="120" height="60" as="geometry"/>
                </mxCell>
                <mxCell id="dHd20_O_HY_oOaejgzS0-12" value="" style="edgeStyle=orthogonalEdgeStyle;rounded=0;orthogonalLoop=1;jettySize=auto;html=1;" parent="1" source="dHd20_O_HY_oOaejgzS0-8" target="dHd20_O_HY_oOaejgzS0-11" edge="1">
                    <mxGeometry relative="1" as="geometry"/>
                </mxCell>
                <mxCell id="dHd20_O_HY_oOaejgzS0-13" value="TRUE" style="edgeLabel;html=1;align=center;verticalAlign=middle;resizable=0;points=[];" parent="dHd20_O_HY_oOaejgzS0-12" vertex="1" connectable="0">
                    <mxGeometry x="-0.225" relative="1" as="geometry">
                        <mxPoint as="offset"/>
                    </mxGeometry>
                </mxCell>
                <mxCell id="dHd20_O_HY_oOaejgzS0-21" value="" style="edgeStyle=orthogonalEdgeStyle;rounded=0;orthogonalLoop=1;jettySize=auto;html=1;fontSize=10;" parent="1" source="dHd20_O_HY_oOaejgzS0-8" target="dHd20_O_HY_oOaejgzS0-20" edge="1">
                    <mxGeometry relative="1" as="geometry"/>
                </mxCell>
                <mxCell id="dHd20_O_HY_oOaejgzS0-22" value="FALSE" style="edgeLabel;html=1;align=center;verticalAlign=middle;resizable=0;points=[];fontSize=10;" parent="dHd20_O_HY_oOaejgzS0-21" vertex="1" connectable="0">
                    <mxGeometry x="-0.2164" relative="1" as="geometry">
                        <mxPoint as="offset"/>
                    </mxGeometry>
                </mxCell>
                <mxCell id="dHd20_O_HY_oOaejgzS0-8" value="&lt;font style=&quot;font-size: 9px&quot;&gt;수거자가 배출자의&lt;br&gt;수거요청에 대하여 응답하였는가?&lt;br style=&quot;font-size: 9px&quot;&gt;TRANSACTION.ACCEPT_ASK_END&lt;br&gt;IS NOT NULL&lt;br&gt;&lt;/font&gt;" style="rhombus;whiteSpace=wrap;html=1;" parent="1" vertex="1">
                    <mxGeometry x="130" y="380" width="228" height="110" as="geometry"/>
                </mxCell>
                <mxCell id="dHd20_O_HY_oOaejgzS0-15" value="" style="edgeStyle=orthogonalEdgeStyle;rounded=0;orthogonalLoop=1;jettySize=auto;html=1;" parent="1" source="dHd20_O_HY_oOaejgzS0-11" target="dHd20_O_HY_oOaejgzS0-14" edge="1">
                    <mxGeometry relative="1" as="geometry"/>
                </mxCell>
                <mxCell id="dHd20_O_HY_oOaejgzS0-16" value="TRUE" style="edgeLabel;html=1;align=center;verticalAlign=middle;resizable=0;points=[];" parent="dHd20_O_HY_oOaejgzS0-15" vertex="1" connectable="0">
                    <mxGeometry x="-0.2438" relative="1" as="geometry">
                        <mxPoint as="offset"/>
                    </mxGeometry>
                </mxCell>
                <mxCell id="dHd20_O_HY_oOaejgzS0-18" value="" style="edgeStyle=orthogonalEdgeStyle;rounded=0;orthogonalLoop=1;jettySize=auto;html=1;" parent="1" source="dHd20_O_HY_oOaejgzS0-11" target="dHd20_O_HY_oOaejgzS0-17" edge="1">
                    <mxGeometry relative="1" as="geometry"/>
                </mxCell>
                <mxCell id="dHd20_O_HY_oOaejgzS0-19" value="FALSE" style="edgeLabel;html=1;align=center;verticalAlign=middle;resizable=0;points=[];" parent="dHd20_O_HY_oOaejgzS0-18" vertex="1" connectable="0">
                    <mxGeometry x="-0.199" relative="1" as="geometry">
                        <mxPoint as="offset"/>
                    </mxGeometry>
                </mxCell>
                <mxCell id="dHd20_O_HY_oOaejgzS0-11" value="&lt;font style=&quot;font-size: 9px&quot;&gt;수거자가 배출자의 &lt;br&gt;수거요청에 대하여 수락하였는가?&lt;br style=&quot;font-size: 9px&quot;&gt;TRANSACTION.ACCEPT_ASK_END&lt;br&gt;= TRUE&lt;br&gt;&lt;/font&gt;" style="rhombus;whiteSpace=wrap;html=1;" parent="1" vertex="1">
                    <mxGeometry x="438" y="380" width="228" height="110" as="geometry"/>
                </mxCell>
                <mxCell id="dHd20_O_HY_oOaejgzS0-14" value="&lt;span style=&quot;font-size: 10px&quot;&gt;118&lt;/span&gt;&lt;br style=&quot;font-size: 10px&quot;&gt;&lt;span style=&quot;font-size: 10px&quot;&gt;처리중&lt;/span&gt;" style="whiteSpace=wrap;html=1;" parent="1" vertex="1">
                    <mxGeometry x="492" y="215" width="120" height="60" as="geometry"/>
                </mxCell>
                <mxCell id="dHd20_O_HY_oOaejgzS0-17" value="&lt;font style=&quot;font-size: 10px&quot;&gt;122&lt;br&gt;&lt;/font&gt;&lt;table style=&quot;font-size: 10px&quot;&gt;&lt;tbody&gt;&lt;tr&gt;&lt;td&gt;&lt;font style=&quot;font-size: 10px&quot;&gt;기존거래거절종료&lt;/font&gt;&lt;/td&gt;&lt;/tr&gt;&lt;/tbody&gt;&lt;/table&gt;" style="whiteSpace=wrap;html=1;" parent="1" vertex="1">
                    <mxGeometry x="492" y="595" width="120" height="60" as="geometry"/>
                </mxCell>
                <mxCell id="dHd20_O_HY_oOaejgzS0-24" value="" style="edgeStyle=orthogonalEdgeStyle;rounded=0;orthogonalLoop=1;jettySize=auto;html=1;fontSize=10;" parent="1" source="dHd20_O_HY_oOaejgzS0-20" target="dHd20_O_HY_oOaejgzS0-23" edge="1">
                    <mxGeometry relative="1" as="geometry"/>
                </mxCell>
                <mxCell id="dHd20_O_HY_oOaejgzS0-25" value="TRUE" style="edgeLabel;html=1;align=center;verticalAlign=middle;resizable=0;points=[];fontSize=10;" parent="dHd20_O_HY_oOaejgzS0-24" vertex="1" connectable="0">
                    <mxGeometry x="-0.2738" relative="1" as="geometry">
                        <mxPoint as="offset"/>
                    </mxGeometry>
                </mxCell>
                <mxCell id="dHd20_O_HY_oOaejgzS0-27" value="" style="edgeStyle=orthogonalEdgeStyle;rounded=0;orthogonalLoop=1;jettySize=auto;html=1;fontSize=10;" parent="1" source="dHd20_O_HY_oOaejgzS0-20" target="dHd20_O_HY_oOaejgzS0-26" edge="1">
                    <mxGeometry relative="1" as="geometry"/>
                </mxCell>
                <mxCell id="dHd20_O_HY_oOaejgzS0-28" value="FALSE" style="edgeLabel;html=1;align=center;verticalAlign=middle;resizable=0;points=[];fontSize=10;" parent="dHd20_O_HY_oOaejgzS0-27" vertex="1" connectable="0">
                    <mxGeometry x="-0.2388" y="1" relative="1" as="geometry">
                        <mxPoint as="offset"/>
                    </mxGeometry>
                </mxCell>
                <mxCell id="dHd20_O_HY_oOaejgzS0-20" value="&lt;font style=&quot;font-size: 9px&quot;&gt;수거자가 배출자의 수거요청에 &lt;br&gt;대하여 응답해야하는 DEADLINE이 지났는가?&lt;br style=&quot;font-size: 9px&quot;&gt;TRANSACTION.MAX_DECISION_AT&lt;br&gt;&amp;lt;= NOW()&lt;br&gt;&lt;/font&gt;" style="rhombus;whiteSpace=wrap;html=1;" parent="1" vertex="1">
                    <mxGeometry x="130" y="570" width="228" height="110" as="geometry"/>
                </mxCell>
                <mxCell id="dHd20_O_HY_oOaejgzS0-23" value="&lt;font style=&quot;font-size: 10px&quot;&gt;122&lt;br&gt;&lt;/font&gt;&lt;table style=&quot;font-size: 10px&quot;&gt;&lt;tbody&gt;&lt;tr&gt;&lt;td&gt;기존거래거절종료&lt;/td&gt;&lt;/tr&gt;&lt;/tbody&gt;&lt;/table&gt;" style="whiteSpace=wrap;html=1;" parent="1" vertex="1">
                    <mxGeometry x="184" y="785" width="120" height="60" as="geometry"/>
                </mxCell>
                <mxCell id="dHd20_O_HY_oOaejgzS0-26" value="&lt;span style=&quot;font-size: 10px&quot;&gt;104&lt;/span&gt;&lt;br style=&quot;font-size: 10px&quot;&gt;&lt;span style=&quot;font-size: 10px&quot;&gt;기존거래&lt;/span&gt;" style="whiteSpace=wrap;html=1;" parent="1" vertex="1">
                    <mxGeometry x="-120" y="595" width="120" height="60" as="geometry"/>
                </mxCell>
                <mxCell id="dHd20_O_HY_oOaejgzS0-33" value="" style="edgeStyle=orthogonalEdgeStyle;rounded=0;orthogonalLoop=1;jettySize=auto;html=1;fontSize=10;" parent="1" source="dHd20_O_HY_oOaejgzS0-29" target="dHd20_O_HY_oOaejgzS0-32" edge="1">
                    <mxGeometry relative="1" as="geometry"/>
                </mxCell>
                <mxCell id="dHd20_O_HY_oOaejgzS0-34" value="TRUE" style="edgeLabel;html=1;align=center;verticalAlign=middle;resizable=0;points=[];fontSize=10;" parent="dHd20_O_HY_oOaejgzS0-33" vertex="1" connectable="0">
                    <mxGeometry x="-0.1385" y="1" relative="1" as="geometry">
                        <mxPoint as="offset"/>
                    </mxGeometry>
                </mxCell>
                <mxCell id="dHd20_O_HY_oOaejgzS0-36" value="" style="edgeStyle=orthogonalEdgeStyle;rounded=0;orthogonalLoop=1;jettySize=auto;html=1;fontSize=10;" parent="1" source="dHd20_O_HY_oOaejgzS0-29" target="dHd20_O_HY_oOaejgzS0-35" edge="1">
                    <mxGeometry relative="1" as="geometry"/>
                </mxCell>
                <mxCell id="dHd20_O_HY_oOaejgzS0-37" value="FALSE" style="edgeLabel;html=1;align=center;verticalAlign=middle;resizable=0;points=[];fontSize=10;" parent="dHd20_O_HY_oOaejgzS0-36" vertex="1" connectable="0">
                    <mxGeometry x="-0.2081" y="-1" relative="1" as="geometry">
                        <mxPoint as="offset"/>
                    </mxGeometry>
                </mxCell>
                <mxCell id="dHd20_O_HY_oOaejgzS0-29" value="&lt;font style=&quot;font-size: 9px&quot;&gt;배출자가 자신의 &lt;br&gt;입찰내역을 삭제하였는가?&lt;br style=&quot;font-size: 9px&quot;&gt;ORDER.IS_DELETED&lt;br&gt;= TRUE&lt;br&gt;&lt;/font&gt;" style="rhombus;whiteSpace=wrap;html=1;" parent="1" vertex="1">
                    <mxGeometry x="-482" y="380" width="228" height="110" as="geometry"/>
                </mxCell>
                <mxCell id="dHd20_O_HY_oOaejgzS0-32" value="&lt;span style=&quot;font-size: 10px&quot;&gt;106&lt;/span&gt;&lt;br style=&quot;font-size: 10px&quot;&gt;&lt;span style=&quot;font-size: 10px&quot;&gt;삭제&lt;/span&gt;" style="whiteSpace=wrap;html=1;" parent="1" vertex="1">
                    <mxGeometry x="-120" y="405" width="120" height="60" as="geometry"/>
                </mxCell>
                <mxCell id="dHd20_O_HY_oOaejgzS0-39" value="" style="edgeStyle=orthogonalEdgeStyle;rounded=0;orthogonalLoop=1;jettySize=auto;html=1;fontSize=10;" parent="1" source="dHd20_O_HY_oOaejgzS0-35" target="dHd20_O_HY_oOaejgzS0-38" edge="1">
                    <mxGeometry relative="1" as="geometry"/>
                </mxCell>
                <mxCell id="dHd20_O_HY_oOaejgzS0-40" value="TRUE" style="edgeLabel;html=1;align=center;verticalAlign=middle;resizable=0;points=[];fontSize=10;" parent="dHd20_O_HY_oOaejgzS0-39" vertex="1" connectable="0">
                    <mxGeometry x="-0.214" relative="1" as="geometry">
                        <mxPoint as="offset"/>
                    </mxGeometry>
                </mxCell>
                <mxCell id="dHd20_O_HY_oOaejgzS0-155" style="edgeStyle=orthogonalEdgeStyle;rounded=0;orthogonalLoop=1;jettySize=auto;html=1;entryX=0;entryY=0.5;entryDx=0;entryDy=0;fontSize=10;exitX=0;exitY=0.5;exitDx=0;exitDy=0;" parent="1" source="dHd20_O_HY_oOaejgzS0-35" target="dHd20_O_HY_oOaejgzS0-67" edge="1">
                    <mxGeometry relative="1" as="geometry">
                        <Array as="points">
                            <mxPoint x="-612" y="625"/>
                            <mxPoint x="-612" y="1575"/>
                        </Array>
                    </mxGeometry>
                </mxCell>
                <mxCell id="dHd20_O_HY_oOaejgzS0-156" value="FALSE" style="edgeLabel;html=1;align=center;verticalAlign=middle;resizable=0;points=[];fontSize=10;" parent="dHd20_O_HY_oOaejgzS0-155" vertex="1" connectable="0">
                    <mxGeometry x="-0.9265" relative="1" as="geometry">
                        <mxPoint as="offset"/>
                    </mxGeometry>
                </mxCell>
                <mxCell id="dHd20_O_HY_oOaejgzS0-35" value="&lt;font style=&quot;font-size: 9px&quot;&gt;방문일정이 존재하는가?&lt;br style=&quot;font-size: 9px&quot;&gt;ORDER.VISIT_END_AT&lt;br&gt;IS NOT NULL&lt;br&gt;&lt;/font&gt;" style="rhombus;whiteSpace=wrap;html=1;" parent="1" vertex="1">
                    <mxGeometry x="-482" y="570" width="228" height="110" as="geometry"/>
                </mxCell>
                <mxCell id="dHd20_O_HY_oOaejgzS0-54" value="" style="edgeStyle=orthogonalEdgeStyle;rounded=0;orthogonalLoop=1;jettySize=auto;html=1;fontSize=10;" parent="1" source="dHd20_O_HY_oOaejgzS0-38" target="dHd20_O_HY_oOaejgzS0-53" edge="1">
                    <mxGeometry relative="1" as="geometry"/>
                </mxCell>
                <mxCell id="dHd20_O_HY_oOaejgzS0-55" value="TRUE" style="edgeLabel;html=1;align=center;verticalAlign=middle;resizable=0;points=[];fontSize=10;" parent="dHd20_O_HY_oOaejgzS0-54" vertex="1" connectable="0">
                    <mxGeometry x="-0.315" y="-2" relative="1" as="geometry">
                        <mxPoint as="offset"/>
                    </mxGeometry>
                </mxCell>
                <mxCell id="dHd20_O_HY_oOaejgzS0-60" style="edgeStyle=orthogonalEdgeStyle;rounded=0;orthogonalLoop=1;jettySize=auto;html=1;entryX=0;entryY=0.5;entryDx=0;entryDy=0;fontSize=10;exitX=0;exitY=0.5;exitDx=0;exitDy=0;" parent="1" source="dHd20_O_HY_oOaejgzS0-38" target="dHd20_O_HY_oOaejgzS0-56" edge="1">
                    <mxGeometry relative="1" as="geometry">
                        <Array as="points">
                            <mxPoint x="-542" y="815"/>
                            <mxPoint x="-542" y="1195"/>
                        </Array>
                    </mxGeometry>
                </mxCell>
                <mxCell id="dHd20_O_HY_oOaejgzS0-61" value="FALSE" style="edgeLabel;html=1;align=center;verticalAlign=middle;resizable=0;points=[];fontSize=10;" parent="dHd20_O_HY_oOaejgzS0-60" vertex="1" connectable="0">
                    <mxGeometry x="-0.9295" y="1" relative="1" as="geometry">
                        <mxPoint x="-12" y="-1" as="offset"/>
                    </mxGeometry>
                </mxCell>
                <mxCell id="dHd20_O_HY_oOaejgzS0-38" value="&lt;font style=&quot;font-size: 9px&quot;&gt;방문시작일이 존재하는가?&lt;br style=&quot;font-size: 9px&quot;&gt;ORDER.VISIT_START_AT&lt;br&gt;IS NOT NULL&lt;br&gt;&lt;/font&gt;" style="rhombus;whiteSpace=wrap;html=1;" parent="1" vertex="1">
                    <mxGeometry x="-482" y="760" width="228" height="110" as="geometry"/>
                </mxCell>
                <mxCell id="dHd20_O_HY_oOaejgzS0-57" value="" style="edgeStyle=orthogonalEdgeStyle;rounded=0;orthogonalLoop=1;jettySize=auto;html=1;fontSize=10;" parent="1" source="dHd20_O_HY_oOaejgzS0-53" target="dHd20_O_HY_oOaejgzS0-56" edge="1">
                    <mxGeometry relative="1" as="geometry"/>
                </mxCell>
                <mxCell id="dHd20_O_HY_oOaejgzS0-72" value="TRUE" style="edgeLabel;html=1;align=center;verticalAlign=middle;resizable=0;points=[];fontSize=10;" parent="dHd20_O_HY_oOaejgzS0-57" vertex="1" connectable="0">
                    <mxGeometry x="-0.1848" relative="1" as="geometry">
                        <mxPoint as="offset"/>
                    </mxGeometry>
                </mxCell>
                <mxCell id="dHd20_O_HY_oOaejgzS0-59" value="" style="edgeStyle=orthogonalEdgeStyle;rounded=0;orthogonalLoop=1;jettySize=auto;html=1;fontSize=10;" parent="1" source="dHd20_O_HY_oOaejgzS0-53" target="dHd20_O_HY_oOaejgzS0-58" edge="1">
                    <mxGeometry relative="1" as="geometry"/>
                </mxCell>
                <mxCell id="dHd20_O_HY_oOaejgzS0-71" value="FALSE" style="edgeLabel;html=1;align=center;verticalAlign=middle;resizable=0;points=[];fontSize=10;" parent="dHd20_O_HY_oOaejgzS0-59" vertex="1" connectable="0">
                    <mxGeometry x="-0.3861" y="-1" relative="1" as="geometry">
                        <mxPoint as="offset"/>
                    </mxGeometry>
                </mxCell>
                <mxCell id="dHd20_O_HY_oOaejgzS0-53" value="&lt;font style=&quot;font-size: 9px&quot;&gt;방문시작일이 지났는가?&lt;br style=&quot;font-size: 9px&quot;&gt;ORDER.VISIT_START_AT&lt;br&gt;&amp;lt;= NOW()&lt;br&gt;&lt;/font&gt;" style="rhombus;whiteSpace=wrap;html=1;" parent="1" vertex="1">
                    <mxGeometry x="-482" y="950" width="228" height="110" as="geometry"/>
                </mxCell>
                <mxCell id="dHd20_O_HY_oOaejgzS0-63" value="" style="edgeStyle=orthogonalEdgeStyle;rounded=0;orthogonalLoop=1;jettySize=auto;html=1;fontSize=10;" parent="1" source="dHd20_O_HY_oOaejgzS0-56" target="dHd20_O_HY_oOaejgzS0-62" edge="1">
                    <mxGeometry relative="1" as="geometry"/>
                </mxCell>
                <mxCell id="dHd20_O_HY_oOaejgzS0-73" value="Text" style="edgeLabel;html=1;align=center;verticalAlign=middle;resizable=0;points=[];fontSize=10;" parent="dHd20_O_HY_oOaejgzS0-63" vertex="1" connectable="0">
                    <mxGeometry x="-0.3043" y="-1" relative="1" as="geometry">
                        <mxPoint as="offset"/>
                    </mxGeometry>
                </mxCell>
                <mxCell id="dHd20_O_HY_oOaejgzS0-75" value="" style="edgeStyle=orthogonalEdgeStyle;rounded=0;orthogonalLoop=1;jettySize=auto;html=1;fontSize=10;" parent="1" source="dHd20_O_HY_oOaejgzS0-56" target="dHd20_O_HY_oOaejgzS0-74" edge="1">
                    <mxGeometry relative="1" as="geometry"/>
                </mxCell>
                <mxCell id="dHd20_O_HY_oOaejgzS0-76" value="FALSE" style="edgeLabel;html=1;align=center;verticalAlign=middle;resizable=0;points=[];fontSize=10;" parent="dHd20_O_HY_oOaejgzS0-75" vertex="1" connectable="0">
                    <mxGeometry x="-0.2823" y="-1" relative="1" as="geometry">
                        <mxPoint as="offset"/>
                    </mxGeometry>
                </mxCell>
                <mxCell id="dHd20_O_HY_oOaejgzS0-56" value="&lt;font style=&quot;font-size: 9px&quot;&gt;방문종료일이 지났는가?&lt;br style=&quot;font-size: 9px&quot;&gt;ORDER.VISIT_END_AT&lt;br&gt;&amp;lt;= NOW()&lt;br&gt;&lt;/font&gt;" style="rhombus;whiteSpace=wrap;html=1;" parent="1" vertex="1">
                    <mxGeometry x="-482" y="1140" width="228" height="110" as="geometry"/>
                </mxCell>
                <mxCell id="dHd20_O_HY_oOaejgzS0-58" value="&lt;span style=&quot;font-size: 10px&quot;&gt;101&lt;/span&gt;&lt;br style=&quot;font-size: 10px&quot;&gt;&lt;span style=&quot;font-size: 10px&quot;&gt;방문대기중&lt;/span&gt;" style="whiteSpace=wrap;html=1;" parent="1" vertex="1">
                    <mxGeometry x="-120" y="975" width="120" height="60" as="geometry"/>
                </mxCell>
                <mxCell id="dHd20_O_HY_oOaejgzS0-65" value="" style="edgeStyle=orthogonalEdgeStyle;rounded=0;orthogonalLoop=1;jettySize=auto;html=1;fontSize=10;" parent="1" source="dHd20_O_HY_oOaejgzS0-62" target="dHd20_O_HY_oOaejgzS0-64" edge="1">
                    <mxGeometry relative="1" as="geometry"/>
                </mxCell>
                <mxCell id="dHd20_O_HY_oOaejgzS0-66" value="FALSE" style="edgeLabel;html=1;align=center;verticalAlign=middle;resizable=0;points=[];fontSize=10;" parent="dHd20_O_HY_oOaejgzS0-65" vertex="1" connectable="0">
                    <mxGeometry x="-0.2442" y="1" relative="1" as="geometry">
                        <mxPoint as="offset"/>
                    </mxGeometry>
                </mxCell>
                <mxCell id="dHd20_O_HY_oOaejgzS0-68" value="" style="edgeStyle=orthogonalEdgeStyle;rounded=0;orthogonalLoop=1;jettySize=auto;html=1;fontSize=10;" parent="1" source="dHd20_O_HY_oOaejgzS0-62" target="dHd20_O_HY_oOaejgzS0-67" edge="1">
                    <mxGeometry relative="1" as="geometry"/>
                </mxCell>
                <mxCell id="dHd20_O_HY_oOaejgzS0-77" value="TRUE" style="edgeLabel;html=1;align=center;verticalAlign=middle;resizable=0;points=[];fontSize=10;" parent="dHd20_O_HY_oOaejgzS0-68" vertex="1" connectable="0">
                    <mxGeometry x="-0.2065" y="-2" relative="1" as="geometry">
                        <mxPoint as="offset"/>
                    </mxGeometry>
                </mxCell>
                <mxCell id="dHd20_O_HY_oOaejgzS0-62" value="&lt;font style=&quot;font-size: 9px&quot;&gt;예상방문자가 존재하는가?&lt;br style=&quot;font-size: 9px&quot;&gt;ORDER.PROSPECTIVE_VISITORS&lt;br&gt;&amp;gt; 0&lt;br&gt;&lt;/font&gt;" style="rhombus;whiteSpace=wrap;html=1;" parent="1" vertex="1">
                    <mxGeometry x="-482" y="1330" width="228" height="110" as="geometry"/>
                </mxCell>
                <mxCell id="dHd20_O_HY_oOaejgzS0-64" value="&lt;font style=&quot;font-size: 10px&quot;&gt;116&lt;br&gt;&lt;/font&gt;&lt;table style=&quot;font-size: 10px&quot;&gt;&lt;tbody&gt;&lt;tr&gt;&lt;td&gt;&lt;font style=&quot;font-size: 10px&quot;&gt;무방문신청종료&lt;/font&gt;&lt;/td&gt;&lt;/tr&gt;&lt;/tbody&gt;&lt;/table&gt;" style="whiteSpace=wrap;html=1;" parent="1" vertex="1">
                    <mxGeometry x="-120" y="1355" width="120" height="60" as="geometry"/>
                </mxCell>
                <mxCell id="dHd20_O_HY_oOaejgzS0-70" value="" style="edgeStyle=orthogonalEdgeStyle;rounded=0;orthogonalLoop=1;jettySize=auto;html=1;fontSize=10;entryX=0;entryY=0.5;entryDx=0;entryDy=0;" parent="1" source="dHd20_O_HY_oOaejgzS0-67" target="3" edge="1">
                    <mxGeometry relative="1" as="geometry">
                        <mxPoint x="-120" y="1575" as="targetPoint"/>
                    </mxGeometry>
                </mxCell>
                <mxCell id="dHd20_O_HY_oOaejgzS0-78" value="FALSE" style="edgeLabel;html=1;align=center;verticalAlign=middle;resizable=0;points=[];fontSize=10;" parent="dHd20_O_HY_oOaejgzS0-70" vertex="1" connectable="0">
                    <mxGeometry x="-0.2109" relative="1" as="geometry">
                        <mxPoint as="offset"/>
                    </mxGeometry>
                </mxCell>
                <mxCell id="dHd20_O_HY_oOaejgzS0-80" value="" style="edgeStyle=orthogonalEdgeStyle;rounded=0;orthogonalLoop=1;jettySize=auto;html=1;fontSize=10;" parent="1" source="dHd20_O_HY_oOaejgzS0-67" target="dHd20_O_HY_oOaejgzS0-79" edge="1">
                    <mxGeometry relative="1" as="geometry"/>
                </mxCell>
                <mxCell id="dHd20_O_HY_oOaejgzS0-88" value="TRUE" style="edgeLabel;html=1;align=center;verticalAlign=middle;resizable=0;points=[];fontSize=10;" parent="dHd20_O_HY_oOaejgzS0-80" vertex="1" connectable="0">
                    <mxGeometry x="-0.2283" y="-1" relative="1" as="geometry">
                        <mxPoint as="offset"/>
                    </mxGeometry>
                </mxCell>
                <mxCell id="dHd20_O_HY_oOaejgzS0-67" value="&lt;font style=&quot;font-size: 9px&quot;&gt;입찰마감일이 지났는가?&lt;br style=&quot;font-size: 9px&quot;&gt;ORDER.BIDDING_END_AT&lt;br&gt;&amp;lt;= NOW()&lt;br&gt;&lt;/font&gt;" style="rhombus;whiteSpace=wrap;html=1;" parent="1" vertex="1">
                    <mxGeometry x="-482" y="1520" width="228" height="110" as="geometry"/>
                </mxCell>
                <mxCell id="dHd20_O_HY_oOaejgzS0-74" value="&lt;span style=&quot;font-size: 10px&quot;&gt;102&lt;/span&gt;&lt;br style=&quot;font-size: 10px&quot;&gt;&lt;span style=&quot;font-size: 10px&quot;&gt;방문중&lt;/span&gt;" style="whiteSpace=wrap;html=1;" parent="1" vertex="1">
                    <mxGeometry x="-120" y="1165" width="120" height="60" as="geometry"/>
                </mxCell>
                <mxCell id="dHd20_O_HY_oOaejgzS0-82" value="" style="edgeStyle=orthogonalEdgeStyle;rounded=0;orthogonalLoop=1;jettySize=auto;html=1;fontSize=10;" parent="1" source="dHd20_O_HY_oOaejgzS0-79" target="dHd20_O_HY_oOaejgzS0-81" edge="1">
                    <mxGeometry relative="1" as="geometry"/>
                </mxCell>
                <mxCell id="dHd20_O_HY_oOaejgzS0-83" value="FALSE" style="edgeLabel;html=1;align=center;verticalAlign=middle;resizable=0;points=[];fontSize=10;" parent="dHd20_O_HY_oOaejgzS0-82" vertex="1" connectable="0">
                    <mxGeometry x="-0.159" relative="1" as="geometry">
                        <mxPoint as="offset"/>
                    </mxGeometry>
                </mxCell>
                <mxCell id="dHd20_O_HY_oOaejgzS0-85" value="" style="edgeStyle=orthogonalEdgeStyle;rounded=0;orthogonalLoop=1;jettySize=auto;html=1;fontSize=10;" parent="1" source="dHd20_O_HY_oOaejgzS0-79" target="dHd20_O_HY_oOaejgzS0-84" edge="1">
                    <mxGeometry relative="1" as="geometry"/>
                </mxCell>
                <mxCell id="dHd20_O_HY_oOaejgzS0-89" value="TRUE" style="edgeLabel;html=1;align=center;verticalAlign=middle;resizable=0;points=[];fontSize=10;" parent="dHd20_O_HY_oOaejgzS0-85" vertex="1" connectable="0">
                    <mxGeometry x="-0.1739" y="-1" relative="1" as="geometry">
                        <mxPoint as="offset"/>
                    </mxGeometry>
                </mxCell>
                <mxCell id="dHd20_O_HY_oOaejgzS0-79" value="&lt;font style=&quot;font-size: 9px&quot;&gt;유효한 투찰자(선정상태로 갈수 있는자)&lt;br&gt;가 존재하는가?&lt;br&gt;&amp;nbsp;ORDER.BIDDER &amp;gt; 0&lt;br&gt;&lt;/font&gt;" style="rhombus;whiteSpace=wrap;html=1;" parent="1" vertex="1">
                    <mxGeometry x="-482" y="1710" width="228" height="110" as="geometry"/>
                </mxCell>
                <mxCell id="dHd20_O_HY_oOaejgzS0-81" value="&lt;font style=&quot;font-size: 10px&quot;&gt;117&lt;br&gt;무입찰종료&lt;br&gt;&lt;/font&gt;" style="whiteSpace=wrap;html=1;" parent="1" vertex="1">
                    <mxGeometry x="-120" y="1735" width="120" height="60" as="geometry"/>
                </mxCell>
                <mxCell id="dHd20_O_HY_oOaejgzS0-87" value="" style="edgeStyle=orthogonalEdgeStyle;rounded=0;orthogonalLoop=1;jettySize=auto;html=1;fontSize=10;" parent="1" source="dHd20_O_HY_oOaejgzS0-84" target="dHd20_O_HY_oOaejgzS0-86" edge="1">
                    <mxGeometry relative="1" as="geometry"/>
                </mxCell>
                <mxCell id="dHd20_O_HY_oOaejgzS0-90" value="TRUE" style="edgeLabel;html=1;align=center;verticalAlign=middle;resizable=0;points=[];fontSize=10;" parent="dHd20_O_HY_oOaejgzS0-87" vertex="1" connectable="0">
                    <mxGeometry x="-0.3152" y="-1" relative="1" as="geometry">
                        <mxPoint as="offset"/>
                    </mxGeometry>
                </mxCell>
                <mxCell id="dHd20_O_HY_oOaejgzS0-92" value="" style="edgeStyle=orthogonalEdgeStyle;rounded=0;orthogonalLoop=1;jettySize=auto;html=1;fontSize=10;" parent="1" source="dHd20_O_HY_oOaejgzS0-84" target="dHd20_O_HY_oOaejgzS0-91" edge="1">
                    <mxGeometry relative="1" as="geometry"/>
                </mxCell>
                <mxCell id="dHd20_O_HY_oOaejgzS0-93" value="FALSE" style="edgeLabel;html=1;align=center;verticalAlign=middle;resizable=0;points=[];fontSize=10;" parent="dHd20_O_HY_oOaejgzS0-92" vertex="1" connectable="0">
                    <mxGeometry x="-0.2727" y="2" relative="1" as="geometry">
                        <mxPoint as="offset"/>
                    </mxGeometry>
                </mxCell>
                <mxCell id="dHd20_O_HY_oOaejgzS0-84" value="&lt;font style=&quot;font-size: 9px&quot;&gt;수거자에게 배출요청을 하였는가?&lt;br style=&quot;font-size: 9px&quot;&gt;TRANSACTION.COLLECT_ASK_END_AT&lt;br&gt;IS NOT NULL&lt;br&gt;&lt;/font&gt;" style="rhombus;whiteSpace=wrap;html=1;" parent="1" vertex="1">
                    <mxGeometry x="-482" y="1900" width="228" height="110" as="geometry"/>
                </mxCell>
                <mxCell id="dHd20_O_HY_oOaejgzS0-101" value="" style="edgeStyle=orthogonalEdgeStyle;rounded=0;orthogonalLoop=1;jettySize=auto;html=1;fontSize=10;" parent="1" source="dHd20_O_HY_oOaejgzS0-86" target="dHd20_O_HY_oOaejgzS0-100" edge="1">
                    <mxGeometry relative="1" as="geometry"/>
                </mxCell>
                <mxCell id="dHd20_O_HY_oOaejgzS0-102" value="TRUE" style="edgeLabel;html=1;align=center;verticalAlign=middle;resizable=0;points=[];fontSize=10;" parent="dHd20_O_HY_oOaejgzS0-101" vertex="1" connectable="0">
                    <mxGeometry x="-0.1932" y="-1" relative="1" as="geometry">
                        <mxPoint as="offset"/>
                    </mxGeometry>
                </mxCell>
                <mxCell id="dHd20_O_HY_oOaejgzS0-104" value="" style="edgeStyle=orthogonalEdgeStyle;rounded=0;orthogonalLoop=1;jettySize=auto;html=1;fontSize=10;" parent="1" source="dHd20_O_HY_oOaejgzS0-86" target="dHd20_O_HY_oOaejgzS0-103" edge="1">
                    <mxGeometry relative="1" as="geometry"/>
                </mxCell>
                <mxCell id="dHd20_O_HY_oOaejgzS0-105" value="FALSE" style="edgeLabel;html=1;align=center;verticalAlign=middle;resizable=0;points=[];fontSize=10;" parent="dHd20_O_HY_oOaejgzS0-104" vertex="1" connectable="0">
                    <mxGeometry x="-0.2303" y="-1" relative="1" as="geometry">
                        <mxPoint as="offset"/>
                    </mxGeometry>
                </mxCell>
                <mxCell id="dHd20_O_HY_oOaejgzS0-86" value="&lt;font style=&quot;font-size: 9px&quot;&gt;1순위자가 응답을 하였는가?&lt;br style=&quot;font-size: 9px&quot;&gt;ORDER.COLLECTOR_SELECTION_CONFIRMED&lt;br&gt;IS NOT NULL&lt;br&gt;&lt;/font&gt;" style="rhombus;whiteSpace=wrap;html=1;" parent="1" vertex="1">
                    <mxGeometry x="-482" y="2090" width="228" height="110" as="geometry"/>
                </mxCell>
                <mxCell id="dHd20_O_HY_oOaejgzS0-95" value="" style="edgeStyle=orthogonalEdgeStyle;rounded=0;orthogonalLoop=1;jettySize=auto;html=1;fontSize=10;" parent="1" source="dHd20_O_HY_oOaejgzS0-91" target="dHd20_O_HY_oOaejgzS0-94" edge="1">
                    <mxGeometry relative="1" as="geometry"/>
                </mxCell>
                <mxCell id="dHd20_O_HY_oOaejgzS0-96" value="FALSE" style="edgeLabel;html=1;align=center;verticalAlign=middle;resizable=0;points=[];fontSize=10;" parent="dHd20_O_HY_oOaejgzS0-95" vertex="1" connectable="0">
                    <mxGeometry x="-0.3102" y="-1" relative="1" as="geometry">
                        <mxPoint as="offset"/>
                    </mxGeometry>
                </mxCell>
                <mxCell id="dHd20_O_HY_oOaejgzS0-98" value="" style="edgeStyle=orthogonalEdgeStyle;rounded=0;orthogonalLoop=1;jettySize=auto;html=1;fontSize=10;" parent="1" source="dHd20_O_HY_oOaejgzS0-91" target="dHd20_O_HY_oOaejgzS0-97" edge="1">
                    <mxGeometry relative="1" as="geometry"/>
                </mxCell>
                <mxCell id="dHd20_O_HY_oOaejgzS0-99" value="TRUE" style="edgeLabel;html=1;align=center;verticalAlign=middle;resizable=0;points=[];fontSize=10;" parent="dHd20_O_HY_oOaejgzS0-98" vertex="1" connectable="0">
                    <mxGeometry x="-0.1877" relative="1" as="geometry">
                        <mxPoint as="offset"/>
                    </mxGeometry>
                </mxCell>
                <mxCell id="dHd20_O_HY_oOaejgzS0-91" value="&lt;font style=&quot;font-size: 9px&quot;&gt;1순위자에게 수거요청을&lt;br&gt;해야할 DEADLINE이 지났는가?&lt;br&gt;ORDER.MAX_SELECT_AT&lt;br&gt;&amp;lt;= NOW()&lt;br&gt;&lt;/font&gt;" style="rhombus;whiteSpace=wrap;html=1;" parent="1" vertex="1">
                    <mxGeometry x="-174" y="1900" width="228" height="110" as="geometry"/>
                </mxCell>
                <mxCell id="dHd20_O_HY_oOaejgzS0-94" value="&lt;font style=&quot;font-size: 10px&quot;&gt;110&lt;br&gt;&lt;table&gt;&lt;tbody&gt;&lt;tr&gt;&lt;td&gt;&lt;table&gt;&lt;tbody&gt;&lt;tr&gt;&lt;td&gt;선정중&lt;/td&gt;&lt;/tr&gt;&lt;/tbody&gt;&lt;/table&gt;&lt;/td&gt;&lt;/tr&gt;&lt;/tbody&gt;&lt;/table&gt;&lt;/font&gt;" style="whiteSpace=wrap;html=1;" parent="1" vertex="1">
                    <mxGeometry x="-120" y="2115" width="120" height="60" as="geometry"/>
                </mxCell>
                <mxCell id="dHd20_O_HY_oOaejgzS0-97" value="&lt;font style=&quot;font-size: 10px&quot;&gt;115&lt;br&gt;승인포기종료&lt;/font&gt;" style="whiteSpace=wrap;html=1;" parent="1" vertex="1">
                    <mxGeometry x="188" y="1925" width="120" height="60" as="geometry"/>
                </mxCell>
                <mxCell id="dHd20_O_HY_oOaejgzS0-122" value="" style="edgeStyle=orthogonalEdgeStyle;rounded=0;orthogonalLoop=1;jettySize=auto;html=1;fontSize=10;" parent="1" source="dHd20_O_HY_oOaejgzS0-100" target="dHd20_O_HY_oOaejgzS0-121" edge="1">
                    <mxGeometry relative="1" as="geometry"/>
                </mxCell>
                <mxCell id="dHd20_O_HY_oOaejgzS0-123" value="FALSE" style="edgeLabel;html=1;align=center;verticalAlign=middle;resizable=0;points=[];fontSize=10;" parent="dHd20_O_HY_oOaejgzS0-122" vertex="1" connectable="0">
                    <mxGeometry x="-0.3065" relative="1" as="geometry">
                        <mxPoint as="offset"/>
                    </mxGeometry>
                </mxCell>
                <mxCell id="dHd20_O_HY_oOaejgzS0-144" style="edgeStyle=orthogonalEdgeStyle;rounded=0;orthogonalLoop=1;jettySize=auto;html=1;entryX=0;entryY=0.5;entryDx=0;entryDy=0;fontSize=10;exitX=0;exitY=0.5;exitDx=0;exitDy=0;" parent="1" source="dHd20_O_HY_oOaejgzS0-100" target="dHd20_O_HY_oOaejgzS0-138" edge="1">
                    <mxGeometry relative="1" as="geometry">
                        <Array as="points">
                            <mxPoint x="-544" y="2335"/>
                            <mxPoint x="-544" y="3095"/>
                        </Array>
                    </mxGeometry>
                </mxCell>
                <mxCell id="dHd20_O_HY_oOaejgzS0-148" value="TRUE" style="edgeLabel;html=1;align=center;verticalAlign=middle;resizable=0;points=[];fontSize=10;" parent="dHd20_O_HY_oOaejgzS0-144" vertex="1" connectable="0">
                    <mxGeometry x="-0.9291" y="-1" relative="1" as="geometry">
                        <mxPoint x="-1" y="1" as="offset"/>
                    </mxGeometry>
                </mxCell>
                <mxCell id="dHd20_O_HY_oOaejgzS0-100" value="&lt;font style=&quot;font-size: 9px&quot;&gt;1순위자가 수락 하였는가?&lt;br style=&quot;font-size: 9px&quot;&gt;ORDER.COLLECTOR_SELECTION_CONFIRMED&lt;br&gt;= TRUE&lt;br&gt;&lt;/font&gt;" style="rhombus;whiteSpace=wrap;html=1;" parent="1" vertex="1">
                    <mxGeometry x="-482" y="2280" width="228" height="110" as="geometry"/>
                </mxCell>
                <mxCell id="dHd20_O_HY_oOaejgzS0-107" value="" style="edgeStyle=orthogonalEdgeStyle;rounded=0;orthogonalLoop=1;jettySize=auto;html=1;fontSize=10;entryX=0;entryY=0.5;entryDx=0;entryDy=0;exitX=0.5;exitY=1;exitDx=0;exitDy=0;" parent="1" source="dHd20_O_HY_oOaejgzS0-103" target="dHd20_O_HY_oOaejgzS0-121" edge="1">
                    <mxGeometry relative="1" as="geometry">
                        <mxPoint x="-676" y="2280" as="targetPoint"/>
                    </mxGeometry>
                </mxCell>
                <mxCell id="dHd20_O_HY_oOaejgzS0-110" value="TRUE" style="edgeLabel;html=1;align=center;verticalAlign=middle;resizable=0;points=[];fontSize=10;" parent="dHd20_O_HY_oOaejgzS0-107" vertex="1" connectable="0">
                    <mxGeometry x="-0.2237" relative="1" as="geometry">
                        <mxPoint as="offset"/>
                    </mxGeometry>
                </mxCell>
                <mxCell id="dHd20_O_HY_oOaejgzS0-109" value="" style="edgeStyle=orthogonalEdgeStyle;rounded=0;orthogonalLoop=1;jettySize=auto;html=1;fontSize=10;" parent="1" source="dHd20_O_HY_oOaejgzS0-103" target="dHd20_O_HY_oOaejgzS0-108" edge="1">
                    <mxGeometry relative="1" as="geometry"/>
                </mxCell>
                <mxCell id="dHd20_O_HY_oOaejgzS0-111" value="FALSE" style="edgeLabel;html=1;align=center;verticalAlign=middle;resizable=0;points=[];fontSize=10;" parent="dHd20_O_HY_oOaejgzS0-109" vertex="1" connectable="0">
                    <mxGeometry x="-0.09" y="-2" relative="1" as="geometry">
                        <mxPoint as="offset"/>
                    </mxGeometry>
                </mxCell>
                <mxCell id="dHd20_O_HY_oOaejgzS0-103" value="&lt;font style=&quot;font-size: 9px&quot;&gt;1순위자가 응답을 &lt;br&gt;해야하는 DEADLINE을 지났는가?&lt;br style=&quot;font-size: 9px&quot;&gt;ORDER.COLLECTOR_MAX_DECISION_AT&lt;br&gt;&amp;lt;= NOW()&lt;br&gt;&lt;/font&gt;" style="rhombus;whiteSpace=wrap;html=1;" parent="1" vertex="1">
                    <mxGeometry x="-790" y="2090" width="228" height="110" as="geometry"/>
                </mxCell>
                <mxCell id="dHd20_O_HY_oOaejgzS0-108" value="&lt;font style=&quot;font-size: 10px&quot;&gt;119&lt;br&gt;확인중&lt;br&gt;&lt;/font&gt;" style="whiteSpace=wrap;html=1;" parent="1" vertex="1">
                    <mxGeometry x="-1040" y="2110" width="120" height="60" as="geometry"/>
                </mxCell>
                <mxCell id="dHd20_O_HY_oOaejgzS0-125" value="" style="edgeStyle=orthogonalEdgeStyle;rounded=0;orthogonalLoop=1;jettySize=auto;html=1;fontSize=10;" parent="1" source="dHd20_O_HY_oOaejgzS0-121" target="dHd20_O_HY_oOaejgzS0-124" edge="1">
                    <mxGeometry relative="1" as="geometry"/>
                </mxCell>
                <mxCell id="dHd20_O_HY_oOaejgzS0-129" value="TRUE" style="edgeLabel;html=1;align=center;verticalAlign=middle;resizable=0;points=[];fontSize=10;" parent="dHd20_O_HY_oOaejgzS0-125" vertex="1" connectable="0">
                    <mxGeometry x="-0.2046" y="-1" relative="1" as="geometry">
                        <mxPoint as="offset"/>
                    </mxGeometry>
                </mxCell>
                <mxCell id="dHd20_O_HY_oOaejgzS0-127" value="" style="edgeStyle=orthogonalEdgeStyle;rounded=0;orthogonalLoop=1;jettySize=auto;html=1;fontSize=10;" parent="1" source="dHd20_O_HY_oOaejgzS0-121" target="dHd20_O_HY_oOaejgzS0-126" edge="1">
                    <mxGeometry relative="1" as="geometry"/>
                </mxCell>
                <mxCell id="dHd20_O_HY_oOaejgzS0-128" value="FALSE" style="edgeLabel;html=1;align=center;verticalAlign=middle;resizable=0;points=[];fontSize=10;" parent="dHd20_O_HY_oOaejgzS0-127" vertex="1" connectable="0">
                    <mxGeometry x="-0.1924" y="-1" relative="1" as="geometry">
                        <mxPoint as="offset"/>
                    </mxGeometry>
                </mxCell>
                <mxCell id="dHd20_O_HY_oOaejgzS0-121" value="&lt;font style=&quot;font-size: 9px&quot;&gt;2순위자가 존재하는가?&lt;br style=&quot;font-size: 9px&quot;&gt;ORDER.SECOND_PLACE&lt;br&gt;IS NOT NULL&lt;br&gt;&lt;/font&gt;" style="rhombus;whiteSpace=wrap;html=1;" parent="1" vertex="1">
                    <mxGeometry x="-482" y="2470" width="228" height="110" as="geometry"/>
                </mxCell>
                <mxCell id="dHd20_O_HY_oOaejgzS0-131" value="" style="edgeStyle=orthogonalEdgeStyle;rounded=0;orthogonalLoop=1;jettySize=auto;html=1;fontSize=10;" parent="1" source="dHd20_O_HY_oOaejgzS0-124" target="dHd20_O_HY_oOaejgzS0-130" edge="1">
                    <mxGeometry relative="1" as="geometry"/>
                </mxCell>
                <mxCell id="dHd20_O_HY_oOaejgzS0-132" value="FALSE" style="edgeLabel;html=1;align=center;verticalAlign=middle;resizable=0;points=[];fontSize=10;" parent="dHd20_O_HY_oOaejgzS0-131" vertex="1" connectable="0">
                    <mxGeometry x="-0.2565" y="2" relative="1" as="geometry">
                        <mxPoint as="offset"/>
                    </mxGeometry>
                </mxCell>
                <mxCell id="dHd20_O_HY_oOaejgzS0-134" value="" style="edgeStyle=orthogonalEdgeStyle;rounded=0;orthogonalLoop=1;jettySize=auto;html=1;fontSize=10;" parent="1" source="dHd20_O_HY_oOaejgzS0-124" target="dHd20_O_HY_oOaejgzS0-133" edge="1">
                    <mxGeometry relative="1" as="geometry"/>
                </mxCell>
                <mxCell id="dHd20_O_HY_oOaejgzS0-135" value="TRUE" style="edgeLabel;html=1;align=center;verticalAlign=middle;resizable=0;points=[];fontSize=10;" parent="dHd20_O_HY_oOaejgzS0-134" vertex="1" connectable="0">
                    <mxGeometry x="-0.2694" relative="1" as="geometry">
                        <mxPoint as="offset"/>
                    </mxGeometry>
                </mxCell>
                <mxCell id="dHd20_O_HY_oOaejgzS0-124" value="&lt;font style=&quot;font-size: 9px&quot;&gt;2순위자가 응답을 하였는가?&lt;br&gt;ORDER.COLLECTOR_SELECTION_CONFIRMED2&lt;br&gt;IS NOT NULL&lt;br&gt;&lt;/font&gt;" style="rhombus;whiteSpace=wrap;html=1;" parent="1" vertex="1">
                    <mxGeometry x="-482" y="2660" width="228" height="110" as="geometry"/>
                </mxCell>
                <mxCell id="dHd20_O_HY_oOaejgzS0-126" value="&lt;span style=&quot;font-size: 10px&quot;&gt;121&lt;/span&gt;&lt;br style=&quot;font-size: 10px&quot;&gt;&lt;span style=&quot;font-size: 10px&quot;&gt;확인포기종료&lt;/span&gt;" style="whiteSpace=wrap;html=1;" parent="1" vertex="1">
                    <mxGeometry x="-120" y="2495" width="120" height="60" as="geometry"/>
                </mxCell>
                <mxCell id="dHd20_O_HY_oOaejgzS0-150" value="" style="edgeStyle=orthogonalEdgeStyle;rounded=0;orthogonalLoop=1;jettySize=auto;html=1;fontSize=10;" parent="1" source="dHd20_O_HY_oOaejgzS0-130" target="dHd20_O_HY_oOaejgzS0-149" edge="1">
                    <mxGeometry relative="1" as="geometry"/>
                </mxCell>
                <mxCell id="dHd20_O_HY_oOaejgzS0-153" value="TRUE" style="edgeLabel;html=1;align=center;verticalAlign=middle;resizable=0;points=[];fontSize=10;" parent="dHd20_O_HY_oOaejgzS0-150" vertex="1" connectable="0">
                    <mxGeometry x="-0.2388" relative="1" as="geometry">
                        <mxPoint as="offset"/>
                    </mxGeometry>
                </mxCell>
                <mxCell id="dHd20_O_HY_oOaejgzS0-152" value="" style="edgeStyle=orthogonalEdgeStyle;rounded=0;orthogonalLoop=1;jettySize=auto;html=1;fontSize=10;exitX=0.5;exitY=0;exitDx=0;exitDy=0;" parent="1" source="dHd20_O_HY_oOaejgzS0-130" target="dHd20_O_HY_oOaejgzS0-151" edge="1">
                    <mxGeometry relative="1" as="geometry"/>
                </mxCell>
                <mxCell id="dHd20_O_HY_oOaejgzS0-154" value="FALSE" style="edgeLabel;html=1;align=center;verticalAlign=middle;resizable=0;points=[];fontSize=10;" parent="dHd20_O_HY_oOaejgzS0-152" vertex="1" connectable="0">
                    <mxGeometry x="0.0395" y="1" relative="1" as="geometry">
                        <mxPoint as="offset"/>
                    </mxGeometry>
                </mxCell>
                <mxCell id="dHd20_O_HY_oOaejgzS0-130" value="&lt;font style=&quot;font-size: 9px&quot;&gt;2순위자가 응답을&lt;br&gt;해야하는 DEADLINE을 지났는가?&lt;br&gt;ORDER.COLLECTOR_MAX_DECISION2_AT&lt;br&gt;&amp;lt;= NOW()&lt;br&gt;&lt;/font&gt;" style="rhombus;whiteSpace=wrap;html=1;" parent="1" vertex="1">
                    <mxGeometry x="-174" y="2660" width="228" height="110" as="geometry"/>
                </mxCell>
                <mxCell id="dHd20_O_HY_oOaejgzS0-137" value="" style="edgeStyle=orthogonalEdgeStyle;rounded=0;orthogonalLoop=1;jettySize=auto;html=1;fontSize=10;" parent="1" source="dHd20_O_HY_oOaejgzS0-133" target="dHd20_O_HY_oOaejgzS0-136" edge="1">
                    <mxGeometry relative="1" as="geometry"/>
                </mxCell>
                <mxCell id="dHd20_O_HY_oOaejgzS0-139" value="" style="edgeStyle=orthogonalEdgeStyle;rounded=0;orthogonalLoop=1;jettySize=auto;html=1;fontSize=10;" parent="1" source="dHd20_O_HY_oOaejgzS0-133" target="dHd20_O_HY_oOaejgzS0-138" edge="1">
                    <mxGeometry relative="1" as="geometry"/>
                </mxCell>
                <mxCell id="dHd20_O_HY_oOaejgzS0-145" value="TRUE" style="edgeLabel;html=1;align=center;verticalAlign=middle;resizable=0;points=[];fontSize=10;" parent="dHd20_O_HY_oOaejgzS0-139" vertex="1" connectable="0">
                    <mxGeometry x="-0.1861" y="2" relative="1" as="geometry">
                        <mxPoint as="offset"/>
                    </mxGeometry>
                </mxCell>
                <mxCell id="dHd20_O_HY_oOaejgzS0-133" value="&lt;font style=&quot;font-size: 9px&quot;&gt;2순위자가 수락 하였는가?&lt;br&gt;ORDER.COLLECTOR_SELECTION_CONFIRMED2&lt;br&gt;= TRUE&lt;br&gt;&lt;/font&gt;" style="rhombus;whiteSpace=wrap;html=1;" parent="1" vertex="1">
                    <mxGeometry x="-482" y="2850" width="228" height="110" as="geometry"/>
                </mxCell>
                <mxCell id="dHd20_O_HY_oOaejgzS0-136" value="&lt;span style=&quot;font-size: 10px&quot;&gt;121&lt;/span&gt;&lt;br style=&quot;font-size: 10px&quot;&gt;&lt;span style=&quot;font-size: 10px&quot;&gt;확인포기종료&lt;/span&gt;" style="whiteSpace=wrap;html=1;" parent="1" vertex="1">
                    <mxGeometry x="-120" y="2875" width="120" height="60" as="geometry"/>
                </mxCell>
                <mxCell id="dHd20_O_HY_oOaejgzS0-141" value="" style="edgeStyle=orthogonalEdgeStyle;rounded=0;orthogonalLoop=1;jettySize=auto;html=1;fontSize=10;" parent="1" source="dHd20_O_HY_oOaejgzS0-138" target="dHd20_O_HY_oOaejgzS0-140" edge="1">
                    <mxGeometry relative="1" as="geometry"/>
                </mxCell>
                <mxCell id="dHd20_O_HY_oOaejgzS0-147" value="FALSE" style="edgeLabel;html=1;align=center;verticalAlign=middle;resizable=0;points=[];fontSize=10;" parent="dHd20_O_HY_oOaejgzS0-141" vertex="1" connectable="0">
                    <mxGeometry x="0.3383" y="1" relative="1" as="geometry">
                        <mxPoint x="-28" y="1" as="offset"/>
                    </mxGeometry>
                </mxCell>
                <mxCell id="dHd20_O_HY_oOaejgzS0-143" value="" style="edgeStyle=orthogonalEdgeStyle;rounded=0;orthogonalLoop=1;jettySize=auto;html=1;fontSize=10;" parent="1" source="dHd20_O_HY_oOaejgzS0-138" target="dHd20_O_HY_oOaejgzS0-142" edge="1">
                    <mxGeometry relative="1" as="geometry"/>
                </mxCell>
                <mxCell id="dHd20_O_HY_oOaejgzS0-146" value="TRUE" style="edgeLabel;html=1;align=center;verticalAlign=middle;resizable=0;points=[];fontSize=10;" parent="dHd20_O_HY_oOaejgzS0-143" vertex="1" connectable="0">
                    <mxGeometry x="-0.3728" y="-1" relative="1" as="geometry">
                        <mxPoint as="offset"/>
                    </mxGeometry>
                </mxCell>
                <mxCell id="dHd20_O_HY_oOaejgzS0-138" value="&lt;font style=&quot;font-size: 9px&quot;&gt;&lt;span style=&quot;font-size: 10px&quot;&gt;계약종료일이 지났는가?&lt;/span&gt;&lt;br style=&quot;font-size: 10px&quot;&gt;&lt;span style=&quot;font-size: 10px&quot;&gt;ORDER.CLOSE_AT&lt;br&gt;&lt;/span&gt;&lt;span style=&quot;font-size: 12px&quot;&gt;&amp;lt;= NOW()&lt;/span&gt;&lt;br&gt;&lt;/font&gt;" style="rhombus;whiteSpace=wrap;html=1;" parent="1" vertex="1">
                    <mxGeometry x="-482" y="3040" width="228" height="110" as="geometry"/>
                </mxCell>
                <mxCell id="dHd20_O_HY_oOaejgzS0-140" value="&lt;span style=&quot;font-size: 10px&quot;&gt;118&lt;/span&gt;&lt;br style=&quot;font-size: 10px&quot;&gt;&lt;span style=&quot;font-size: 10px&quot;&gt;처리중&lt;/span&gt;" style="whiteSpace=wrap;html=1;" parent="1" vertex="1">
                    <mxGeometry x="-120" y="3065" width="120" height="60" as="geometry"/>
                </mxCell>
                <mxCell id="dHd20_O_HY_oOaejgzS0-142" value="&lt;font style=&quot;font-size: 10px&quot;&gt;105&lt;br&gt;거래종료&lt;/font&gt;" style="whiteSpace=wrap;html=1;" parent="1" vertex="1">
                    <mxGeometry x="-428" y="3255" width="120" height="60" as="geometry"/>
                </mxCell>
                <mxCell id="dHd20_O_HY_oOaejgzS0-149" value="&lt;span style=&quot;font-size: 10px&quot;&gt;121&lt;/span&gt;&lt;br style=&quot;font-size: 10px&quot;&gt;&lt;span style=&quot;font-size: 10px&quot;&gt;확인포기종료&lt;/span&gt;" style="whiteSpace=wrap;html=1;" parent="1" vertex="1">
                    <mxGeometry x="188" y="2685" width="120" height="60" as="geometry"/>
                </mxCell>
                <mxCell id="dHd20_O_HY_oOaejgzS0-151" value="&lt;span style=&quot;font-size: 10px&quot;&gt;119&lt;/span&gt;&lt;br style=&quot;font-size: 10px&quot;&gt;&lt;span style=&quot;font-size: 10px&quot;&gt;확인중&lt;/span&gt;" style="whiteSpace=wrap;html=1;" parent="1" vertex="1">
                    <mxGeometry x="188" y="2495" width="120" height="60" as="geometry"/>
                </mxCell>
                <mxCell id="dHd20_O_HY_oOaejgzS0-161" value="" style="edgeStyle=orthogonalEdgeStyle;rounded=0;orthogonalLoop=1;jettySize=auto;html=1;fontSize=10;" parent="1" source="dHd20_O_HY_oOaejgzS0-159" target="dHd20_O_HY_oOaejgzS0-2" edge="1">
                    <mxGeometry relative="1" as="geometry"/>
                </mxCell>
                <mxCell id="dHd20_O_HY_oOaejgzS0-163" value="FALSE" style="edgeLabel;html=1;align=center;verticalAlign=middle;resizable=0;points=[];fontSize=10;" parent="dHd20_O_HY_oOaejgzS0-161" vertex="1" connectable="0">
                    <mxGeometry x="-0.1784" relative="1" as="geometry">
                        <mxPoint as="offset"/>
                    </mxGeometry>
                </mxCell>
                <mxCell id="dHd20_O_HY_oOaejgzS0-164" value="" style="edgeStyle=orthogonalEdgeStyle;rounded=0;orthogonalLoop=1;jettySize=auto;html=1;fontSize=10;" parent="1" source="dHd20_O_HY_oOaejgzS0-159" target="dHd20_O_HY_oOaejgzS0-32" edge="1">
                    <mxGeometry relative="1" as="geometry"/>
                </mxCell>
                <mxCell id="dHd20_O_HY_oOaejgzS0-165" value="TRUE" style="edgeLabel;html=1;align=center;verticalAlign=middle;resizable=0;points=[];fontSize=10;" parent="dHd20_O_HY_oOaejgzS0-164" vertex="1" connectable="0">
                    <mxGeometry x="-0.2381" y="1" relative="1" as="geometry">
                        <mxPoint as="offset"/>
                    </mxGeometry>
                </mxCell>
                <mxCell id="dHd20_O_HY_oOaejgzS0-159" value="&lt;font style=&quot;font-size: 9px&quot;&gt;배출자가 자신의&lt;br&gt;입찰내역을 삭제하였는가?&lt;br&gt;ORDER.IS_DELETED&lt;br&gt;= TRUE&lt;br&gt;&lt;/font&gt;" style="rhombus;whiteSpace=wrap;html=1;" parent="1" vertex="1">
                    <mxGeometry x="-174" y="190" width="228" height="110" as="geometry"/>
                </mxCell>
                <mxCell id="2" value="&lt;font style=&quot;font-size: 10px&quot;&gt;103&lt;br&gt;&lt;/font&gt;&lt;table style=&quot;font-size: 10px&quot;&gt;&lt;tbody&gt;&lt;tr&gt;&lt;td&gt;&lt;font style=&quot;font-size: 10px&quot;&gt;입찰중&lt;/font&gt;&lt;/td&gt;&lt;/tr&gt;&lt;/tbody&gt;&lt;/table&gt;" style="whiteSpace=wrap;html=1;fillColor=#d80073;fontColor=#ffffff;strokeColor=#A50040;" vertex="1" parent="1">
                    <mxGeometry x="188" y="1355" width="120" height="60" as="geometry"/>
                </mxCell>
                <mxCell id="4" style="edgeStyle=orthogonalEdgeStyle;html=1;entryX=0.5;entryY=1;entryDx=0;entryDy=0;exitX=0.5;exitY=0;exitDx=0;exitDy=0;" edge="1" parent="1" source="3" target="2">
                    <mxGeometry relative="1" as="geometry"/>
                </mxCell>
                <mxCell id="5" value="TRUE" style="edgeLabel;html=1;align=center;verticalAlign=middle;resizable=0;points=[];" vertex="1" connectable="0" parent="4">
                    <mxGeometry x="-0.3238" relative="1" as="geometry">
                        <mxPoint as="offset"/>
                    </mxGeometry>
                </mxCell>
                <mxCell id="7" value="" style="edgeStyle=orthogonalEdgeStyle;html=1;" edge="1" parent="1" source="3" target="6">
                    <mxGeometry relative="1" as="geometry"/>
                </mxCell>
                <mxCell id="8" value="FASE" style="edgeLabel;html=1;align=center;verticalAlign=middle;resizable=0;points=[];" vertex="1" connectable="0" parent="7">
                    <mxGeometry x="-0.2428" relative="1" as="geometry">
                        <mxPoint as="offset"/>
                    </mxGeometry>
                </mxCell>
                <mxCell id="3" value="&lt;font style=&quot;font-size: 9px&quot;&gt;예상투찰자(앞으로 투찰할 수 있는자)&lt;br&gt;가 존재하는가?&lt;br&gt;&amp;nbsp;ORDER.PROISPECTIVE_BIDDER &amp;gt; 0&lt;br&gt;&lt;/font&gt;" style="rhombus;whiteSpace=wrap;html=1;" vertex="1" parent="1">
                    <mxGeometry x="-174" y="1520" width="228" height="110" as="geometry"/>
                </mxCell>
                <mxCell id="9" value="" style="edgeStyle=orthogonalEdgeStyle;html=1;entryX=0;entryY=0.5;entryDx=0;entryDy=0;" edge="1" parent="1" source="6" target="16">
                    <mxGeometry relative="1" as="geometry">
                        <mxPoint x="460" y="1575" as="targetPoint"/>
                    </mxGeometry>
                </mxCell>
                <mxCell id="10" value="TRUE" style="edgeLabel;html=1;align=center;verticalAlign=middle;resizable=0;points=[];" vertex="1" connectable="0" parent="9">
                    <mxGeometry x="-0.6556" relative="1" as="geometry">
                        <mxPoint x="15" as="offset"/>
                    </mxGeometry>
                </mxCell>
                <mxCell id="12" value="" style="edgeStyle=orthogonalEdgeStyle;html=1;" edge="1" parent="1" source="6" target="11">
                    <mxGeometry relative="1" as="geometry"/>
                </mxCell>
                <mxCell id="13" value="FALSE" style="edgeLabel;html=1;align=center;verticalAlign=middle;resizable=0;points=[];" vertex="1" connectable="0" parent="12">
                    <mxGeometry x="-0.2397" relative="1" as="geometry">
                        <mxPoint as="offset"/>
                    </mxGeometry>
                </mxCell>
                <mxCell id="6" value="&lt;font style=&quot;font-size: 9px&quot;&gt;유효한 투찰자(선정상태로 갈수 있는자)&lt;br&gt;가 존재하는가?&lt;br&gt;&amp;nbsp;ORDER.BIDDER &amp;gt; 0&lt;br&gt;&lt;/font&gt;" style="rhombus;whiteSpace=wrap;html=1;" vertex="1" parent="1">
                    <mxGeometry x="134" y="1520" width="228" height="110" as="geometry"/>
                </mxCell>
                <mxCell id="11" value="&lt;span style=&quot;font-size: 10px&quot;&gt;117&lt;/span&gt;&lt;br style=&quot;font-size: 10px&quot;&gt;&lt;span style=&quot;font-size: 10px&quot;&gt;무입찰종료&lt;/span&gt;" style="whiteSpace=wrap;html=1;" vertex="1" parent="1">
                    <mxGeometry x="188" y="1735" width="120" height="60" as="geometry"/>
                </mxCell>
                <mxCell id="16" value="&lt;span style=&quot;font-size: 10px&quot;&gt;103=&amp;gt;110&lt;/span&gt;&lt;br style=&quot;font-size: 10px&quot;&gt;&lt;span style=&quot;font-size: 10px&quot;&gt;입찰중=&amp;gt;선정중&lt;/span&gt;" style="whiteSpace=wrap;html=1;fillColor=#0050ef;fontColor=#ffffff;strokeColor=#001DBC;" vertex="1" parent="1">
                    <mxGeometry x="438" y="1545" width="120" height="60" as="geometry"/>
                </mxCell>
            </root>
        </mxGraphModel>
    </diagram>
</mxfile>